<svg width="1080" height="1080" viewBox="0 0 1080 1080" fill="none" xmlns="http://www.w3.org/2000/svg">
  <path fill="#0C0C0C" d="M557.83 699.88c68.85 0 134.89 27.36 183.59 76.07l188.67 219.28H820.17c-28.48 0-55.6-12.27-74.42-33.69L589.48 783.57V1080H484.77V789.97L334.14 961.5c-18.78 21.38-45.9 33.67-74.42 33.67h-110l188.8-219.28c48.71-48.7 114.75-76.07 183.59-76.07h35.71v.05ZM304.08 338.61c48.7 48.7 76.07 114.74 76.07 183.58v35.7c0 68.84-27.36 134.88-76.07 183.58L84.77 930.13V820.22l-.04-.04c0-28.48 12.3-55.6 33.72-74.42L296.44 589.5H0V484.79h290.05L118.5 334.18c-21.42-18.78-33.72-45.89-33.72-74.41v-110l219.31 188.83ZM995.18 259.68c0 28.48-12.26 55.6-33.69 74.42L783.5 490.36H1080v104.71H789.95l171.54 150.6c21.38 18.78 33.69 45.9 33.69 74.42v110l-219.3-188.79c-48.71-48.7-76.08-114.74-76.08-183.58v-35.7c0-68.84 27.37-134.88 76.08-183.58l219.3-188.66v109.91ZM595.1 289.94l150.62-171.53c18.78-21.38 45.9-33.67 74.42-33.67h110L741.35 304.03c-48.71 48.7-114.76 76.06-183.61 76.06h-35.7l-.04.04c-68.85 0-134.89-27.36-183.59-76.07L149.73 84.77h109.92c28.48 0 55.6 12.3 74.42 33.72l156.31 177.92V0H595.1v289.94Z"/>
</svg>
